<?xml version="1.0" encoding="UTF-8"?> <svg xmlns="http://www.w3.org/2000/svg" width="263" height="49" viewBox="0 0 263 49" fill="none"><g clip-path="url(#clip0_94_5726)"><path d="M79.504 41.5236L63.4434 41.5409C62.9052 41.5409 62.4689 41.099 62.4689 40.5542L62.4573 1.06129C62.4573 0.516504 62.021 0.0744099 61.4823 0.0744099H55.3293C54.7911 0.0744099 54.3544 0.516504 54.3544 1.06129V47.1094C54.3544 47.6542 54.7911 48.0957 55.3293 48.0957H59.0642C59.1411 48.1153 59.2198 48.1289 59.3028 48.1289H79.504C80.0426 48.1289 80.479 47.6876 80.479 47.1424V42.5103C80.479 41.965 80.0426 41.5236 79.504 41.5236Z" fill="black"></path><path d="M231.486 30.6853V11.0691C231.486 10.5241 231.923 10.0824 232.461 10.0824H238.249C238.787 10.0824 239.223 10.5241 239.223 11.0691V34.0111V47.4561C239.223 48.0009 238.788 48.4427 238.249 48.4427H235.686C235.686 48.4427 234.906 48.322 234.573 47.3644C234.239 46.4062 233.849 44.8845 233.849 44.8845C233.849 44.8845 233.459 43.0814 232.401 44.2649C231.343 45.4481 226.736 49.0862 217.759 48.9983C203.457 48.8586 204.241 34.5241 204.241 31.4933C204.241 28.4629 204.241 10.9241 204.241 10.9241C204.241 10.3792 204.677 9.93755 205.216 9.93755H211.004C211.542 9.93755 211.978 10.3792 211.978 10.9241C211.978 10.9241 211.978 29.4057 211.978 31.8975C211.978 34.3893 211.768 42.2689 220.751 42.2689C229.068 42.2689 231.244 38.3628 231.486 30.6853Z" fill="black"></path><path d="M250.256 13.8843C249.199 15.0677 248.808 13.2642 248.808 13.2642C248.808 13.2642 248.419 11.7427 248.085 10.7847C247.751 9.82706 246.971 9.7064 246.971 9.7064H244.408C243.87 9.7064 243.433 10.1481 243.433 10.6931L243.361 47.3548C243.361 47.8996 243.797 48.3417 244.336 48.3417H250.124C250.662 48.3417 251.098 47.8996 251.098 47.3548V24.4128C251.357 22.6036 252.403 17.1427 258.21 16.4078C260.339 16.1383 261.47 16.3404 261.47 16.3404C262.468 16.3404 263 16.2055 263 15.0607C263 13.9159 262.934 10.5486 262.934 10.5486C262.934 10.5486 262.867 9.0668 261.537 9.13407C260.206 9.20156 255.482 9.53844 253.286 11.0872C251.091 12.6362 250.256 13.8843 250.256 13.8843Z" fill="black"></path><path d="M110.563 31.9583C110.563 31.9583 110.515 32.9514 110.318 34.491C109.812 38.4618 106.295 41.7916 101.437 42.2386C96.5798 42.6857 91.4281 41.543 91.1826 36.7757C90.9376 32.0085 99.9652 31.6108 101.389 31.4117C102.811 31.2131 107.759 30.6839 109.484 30.5675C110.22 30.5177 110.661 30.9156 110.563 31.9583ZM114.587 12.8874C110.22 8.56671 101.143 9.01342 101.143 9.01342C83.6269 8.46694 84.3629 21.2307 84.3629 21.2307L84.3586 22.2835C84.3586 22.8284 84.7949 23.2702 85.3336 23.2702H90.9286C91.4668 23.2702 91.9035 22.8284 91.9035 22.2835L91.9973 21.0958C91.9973 21.0958 92.6481 15.0514 100.8 15.4202C109.582 15.8174 110.122 19.145 110.564 23.1677C110.564 23.1677 110.613 24.0117 109.926 24.1609C109.239 24.3099 94.2744 25.4029 88.3372 28.0349C82.4005 30.6669 83.038 36.6763 83.038 37.3715C83.038 38.0667 82.7452 48.1546 98.1992 48.496C107.178 48.6946 111.692 43.5296 111.692 43.5296C112.085 43.1324 112.477 42.7846 112.87 43.7285C113.262 44.6722 113.654 47.9496 114.881 48.0492C116.108 48.1484 117.236 48.0988 117.236 48.0988C117.236 48.0988 118.463 48.1489 118.463 47.0062C118.463 45.8635 118.414 24.4094 118.414 24.4094C118.414 24.4094 118.684 16.9414 114.587 12.8874Z" fill="black"></path><path d="M151.464 29.8378C151.408 32.3735 152.193 42.5681 140.552 42.3483C131.589 42.1792 130.42 35.9238 130.364 29.6688C130.295 21.8909 131.979 15.9189 141.276 16.0878C150.574 16.2572 151.631 22.3428 151.464 29.8378ZM143.781 9.43837C134.762 9.32584 131.644 13.2704 131.644 13.2704C131.644 13.2704 130.42 14.623 130.531 12.9325C130.642 11.2418 130.444 1.35108 130.444 1.35108C130.444 0.806296 130.007 0.364643 129.469 0.364643H123.681C123.143 0.364643 122.706 0.806296 122.706 1.35108V47.3992C122.706 47.944 123.143 48.3855 123.681 48.3855H126.244C126.244 48.3855 127.024 48.265 127.358 47.3074C127.692 46.3496 128.082 44.828 128.082 44.828C128.082 44.828 128.472 43.0243 129.529 44.208C130.587 45.391 135.207 49.4491 144.171 48.9417C153.134 48.4343 159.592 42.7996 159.481 28.9366C159.37 15.0736 152.8 9.55102 143.781 9.43837Z" fill="black"></path><path d="M16.425 47.6475C16.1409 47.7128 15.9081 47.9292 15.7412 48.1362H19.9654C19.5321 47.3122 19.0122 46.2849 18.9506 45.9889C18.9506 45.9889 17.0161 47.5119 16.425 47.6475Z" fill="black"></path><path d="M18.6435 32.9114C17.5566 32.1284 16.9308 30.6559 16.2677 28.7547C15.6045 26.8536 15.2181 25.5298 14.9234 24.6723C14.6287 23.8148 14.4262 23.7405 14.3894 23.5167C14.3526 23.2926 14.4262 23.1625 14.5184 23.0693C14.5184 23.0693 16.1389 23.3302 17.4833 23.9453C18.8277 24.5601 18.7907 24.6723 19.9509 25.4552C21.1111 26.238 21.5716 27.8598 21.8847 28.4564C22.1979 29.053 23.2701 29.5086 23.4174 29.583C23.5648 29.6573 24.0489 30.0113 24.0489 30.0113C28.7266 31.8193 31.8662 31.9607 32.0134 31.9983C32.1609 32.0357 32.2344 32.1661 32.2344 32.1661C31.7923 32.8558 27.6304 32.9862 27.6304 32.9862C27.6304 32.9862 26.1938 32.9488 23.8367 33.6386C21.4793 34.3281 19.7301 33.6946 18.6435 32.9114ZM13.3083 21.5059C13.0934 21.5603 12.8472 21.4559 12.509 21.7982C12.4015 21.907 12.2672 22.145 12.2605 22.3828C12.2407 23.0902 10.729 22.3556 10.5409 22.2959C10.0593 22.1429 9.30501 21.6757 7.63921 19.772C5.9734 17.8683 5.3823 13.9521 5.32857 12.402C5.27483 10.8518 5.94653 8.0235 7.93475 5.35819C9.92297 2.69302 13.3889 2.23092 13.8457 2.23092C14.3024 2.23092 14.7323 2.28531 14.7592 2.55726C14.7861 2.82922 14.7055 2.82922 14.7055 3.15557C14.7055 3.15557 14.9473 3.75387 14.8667 4.7055C14.683 6.87754 12.6366 8.56741 11.6425 9.41048C10.6484 10.2535 10.7559 11.3686 10.7827 12.4836C10.8096 13.5986 11.6694 17.2972 11.8575 17.9227C12.0455 18.5482 13.2613 20.7036 13.4494 20.9756C13.6374 21.2475 13.5233 21.4515 13.3083 21.5059ZM42.6481 36.9596C42.3256 37.6395 41.8151 37.7755 41.4927 37.8299C41.1703 37.8843 41.0628 38.0747 40.6867 38.537C40.3105 38.9993 39.8538 39.7064 38.2149 42.1268C36.5759 44.5472 31.6591 43.6226 28.9186 43.0515C26.178 42.4804 25.775 41.6101 25.5601 39.6792C25.3451 37.7483 26.7423 36.6061 27.1453 36.4157C27.5483 36.2254 29.3216 35.5183 30.4232 34.5392C31.5248 33.5602 33.298 33.3698 33.5667 33.3698C33.8354 33.3698 34.5608 33.3154 36.9789 33.0435C39.397 32.7715 41.842 33.4242 43.5079 33.9409C44.9119 34.3766 47.7221 35.9675 49.0711 36.7349V3.70122C49.0711 1.65741 47.4345 0.0008737 45.4153 0.0008737H41.6697C43.008 1.1444 45.0263 3.42796 45.3659 5.71409C45.7893 8.56624 42.6403 9.51652 42.3824 9.60985C42.1245 9.70319 42.0143 9.7591 42.0143 9.7591C41.0751 7.78318 41.9221 6.92562 42.3087 6.3479C42.6954 5.77018 42.1246 5.49039 41.5352 5.2294C40.9458 4.96788 40.7434 4.70724 40.6513 4.39047C40.5591 4.07369 40.504 3.62594 40.2832 3.16035C40.0624 2.69433 39.6385 2.61992 39.2516 2.5825C38.8647 2.54508 38.5519 2.32142 38.3311 2.26529C38.1103 2.20959 37.7786 2.20959 37.7786 2.20959L37.7967 2.52637C37.7967 2.52637 36.7289 1.96723 35.6975 1.20314C34.9629 0.658791 34.7697 0.481257 34.4799 0.0008737H32.8527C32.9415 0.43905 33.0908 0.689248 33.2295 0.885927C33.4136 1.147 32.9165 1.85539 32.4374 2.00421C31.9585 2.15346 30.8537 1.79926 30.8537 1.79926C29.2884 2.2283 29.3438 1.96723 27.4836 2.24658C25.6237 2.52637 25.2921 3.77519 24.9608 4.53972C24.6293 5.3038 25.2185 5.02445 24.3346 6.29199C23.4506 7.55965 21.5538 7.96963 20.7803 7.95092C20.0067 7.93221 20.2463 7.83926 20.2829 10.2997C20.3197 12.7603 20.6696 12.4246 21.48 12.6299C22.2905 12.8351 22.6035 11.7349 22.7324 11.5672C22.8612 11.3997 22.8797 11.1758 22.6953 11.1573C21.7966 11.0672 21.259 10.8775 21.0013 10.6353C20.7435 10.3929 21.1116 9.90813 21.5353 9.61003C21.9588 9.31205 23.2303 8.6218 23.5986 8.45419C23.967 8.28662 25.035 7.93221 25.5141 7.83927C25.993 7.7461 26.0664 8.17462 26.1769 8.39845C26.2727 8.59308 26.2138 8.80843 26.6372 8.75251C29.1449 8.42156 29.6942 8.82696 29.8601 8.80843C30.0259 8.78989 30.2467 8.60344 30.2836 8.28645C30.3206 7.96945 29.4365 7.78317 29.0314 7.6713C28.6262 7.55965 26.3058 7.52223 26.3058 7.52223C26.3058 7.52223 25.7166 7.05616 25.606 5.93775C25.4953 4.81951 28.2764 3.68207 29.2707 3.40272C30.265 3.12293 32.6776 2.76917 35.4218 3.14164C38.1658 3.51411 39.3259 5.24854 39.8046 7.14967C40.2833 9.05114 38.8285 9.6474 38.6075 9.66612C38.3865 9.68483 37.9077 10.1509 37.7051 10.5049C37.5025 10.8592 36.8579 11.3438 36.3976 11.6233C35.9373 11.9029 35.2374 12.5181 35.2374 12.5181C35.2374 12.5181 35.2189 12.9843 34.648 13.208C34.077 13.4317 33.6537 12.2572 33.3037 11.4743C32.9538 10.6914 32.6406 10.3559 32.3461 9.74074C32.0512 9.1256 31.5726 8.99488 31.3884 8.99488C31.204 8.99488 31.1491 9.31205 31.1491 9.81536C31.1491 10.3186 30.6887 10.8218 29.915 11.325C29.1416 11.8285 27.5762 10.971 27.392 10.8964C27.2079 10.8218 26.3238 10.4675 26.0661 10.3559C25.8083 10.244 25.7161 10.0763 25.4951 9.81519C25.2741 9.55394 24.8689 10.0016 24.7401 10.0949C24.6112 10.1881 24.4271 10.3559 24.7586 10.7845C25.0901 11.2134 26.1398 11.5676 26.637 11.7165C27.1342 11.8654 27.6867 12.5368 27.9814 12.779C28.2761 13.0212 28.5891 13.2451 28.7916 13.1147C30.1619 12.2322 31.8302 11.9961 32.1064 11.9961C32.3827 11.9961 33.5429 12.0148 32.9721 13.8044C32.1886 16.2616 29.6388 16.7683 27.6682 16.8427C25.6976 16.917 24.6849 16.414 24.5744 16.414C24.464 16.414 24.4456 16.6376 24.5008 16.6376C24.5561 16.6376 25.2006 17.1038 25.6793 17.4393C26.1582 17.7747 26.9685 18.2968 27.3 18.2968C27.6313 18.2968 28.7179 17.9239 29.0863 17.8306C29.4548 17.7373 30.3568 17.5138 31.0752 17.2901C31.7934 17.0664 34.5563 14.8108 35.0535 14.3077C35.5507 13.8046 35.9375 12.6299 36.1215 12.574C36.3057 12.5181 36.6557 12.8164 36.9319 12.8536C37.2081 12.8908 37.7974 12.0522 37.9448 11.4556C38.0921 10.859 38.129 10.7845 38.2946 10.7472C38.4604 10.7097 38.5158 11.1201 38.5158 11.1201C38.5158 11.1201 38.7183 12.1638 38.6261 13.6178C38.5341 15.0717 38.4053 15.4447 37.9818 16.6749C37.5581 17.9054 36.1034 18.0356 35.6244 18.1848C35.1457 18.3339 33.9486 18.7255 33.1014 18.8746C32.2542 19.0238 31.8124 18.5577 31.2415 18.2968C31.0386 18.2042 29.934 18.017 29.8418 18.3339C29.4453 19.697 31.8307 20.4403 32.2174 20.5335C34.7437 21.1427 38.258 19.9185 38.442 18.3898C38.7195 16.0862 38.9761 15.8174 39.2708 15.4821C39.5655 15.1465 40.3572 15.4261 40.3572 15.4261C40.6518 15.128 42.0331 14.1024 42.0331 14.1024C42.0331 14.1024 42.4753 13.8789 42.2541 13.5248C42.0331 13.1706 41.8859 11.7352 43.6352 11.9217C45.3848 12.1083 45.9742 14.6058 45.9742 14.6058C45.9742 14.6058 46.6736 16.0788 46.1762 19.8254C45.6793 23.5721 40.7434 27.4128 36.25 28.8477C31.7567 30.2828 29.6203 30.1154 29.0679 30.1154C28.5154 30.1154 27.4103 29.6683 27.0422 29.5935C26.6739 29.5187 25.7346 28.8852 25.4214 28.7547C25.1082 28.6243 24.0217 28.0652 23.7825 27.9533C23.5431 27.8415 22.6958 27.3006 22.1986 26.9467C21.7012 26.5927 21.5724 26.2191 21.4067 25.8465C21.2408 25.4737 20.3385 24.7468 20.228 24.6538C20.1173 24.5607 20.228 24.4111 20.228 24.4111C21.2592 24.8586 28.2205 25.8465 28.773 25.8652C29.3255 25.8839 31.8485 25.9583 32.18 25.9583C32.5113 25.9583 33.1007 26.1635 33.119 25.7348C33.1373 25.306 31.1854 25.0077 30.9644 24.989C30.7434 24.9703 29.7674 24.9516 29.0492 24.8586C28.3308 24.7655 26.5999 22.0437 26.3606 21.6896C26.1213 21.3354 26.0291 21.4287 25.5869 21.2051C25.145 20.9812 23.5982 19.7698 23.4138 19.5645C23.2296 19.3593 23.5613 18.5768 23.3772 18.3716C23.193 18.1663 22.6024 18.4994 22.139 18.7114C21.0397 19.2147 20.6344 18.639 20.6344 18.639L19.1298 17.0436L18.7716 17.8411C18.7716 17.8411 22.5688 20.9598 23.6436 21.83C24.7183 22.7003 23.9302 22.9903 23.9302 22.9903C23.9302 22.9903 23.142 23.8609 22.8555 23.9329C22.569 24.0052 20.2762 23.5706 18.4849 23.0627C16.6935 22.555 16.1206 21.9749 14.3293 20.3795C12.5382 18.7841 11.8217 14.6504 12.0366 13.8525C12.2516 13.0547 12.3233 11.8221 12.1799 11.4593C12.0366 11.0966 11.75 9.86397 12.3948 9.86397C13.0396 9.86397 13.5412 11.3142 15.0458 13.0547C16.5504 14.7952 18.1983 15.3755 18.8431 15.0128C19.4879 14.6502 18.6282 13.5626 18.27 12.9099C17.9116 12.2572 17.9833 12.0396 16.5504 10.2263C15.1174 8.41325 16.1206 7.03562 16.4072 6.38293C16.694 5.73023 17.5535 4.49707 17.7684 2.46675C17.8836 1.38067 18.3079 0.647912 18.9284 0.0008737H3.65571C1.63659 0.0008737 0 1.65741 0 3.70122V16.8582C0.998982 17.1954 3.2176 17.9667 3.61524 18.2971C4.13094 18.7258 8.70502 22.223 8.53238 28.4938C8.51394 29.1649 8.74062 29.3802 9.02946 29.7054C9.19535 29.8918 10.7975 31.4578 10.5213 32.427C9.78477 31.3269 9.04777 30.749 8.82694 30.6372C8.6061 30.5255 8.36631 30.395 8.20077 30.8051C8.03517 31.2151 7.88807 32.3153 5.69651 31.9983C3.68779 31.7077 2.0339 31.363 0 28.5678V44.4359C0 46.4793 1.63659 48.1362 3.65571 48.1362H6.57171C6.89262 47.474 7.07399 47.0453 7.31679 46.4785C7.66607 45.6626 8.79452 42.7523 9.33188 41.8277C9.86924 40.903 10.6484 39.6792 10.6484 39.6792C10.6484 39.6792 10.4066 37.7483 10.4603 36.6333C10.5141 35.5183 11.1052 33.0435 11.1052 33.0435C11.1052 33.0435 11.3201 32.6355 11.2126 32.2004C11.1052 31.7653 10.944 31.303 11.0514 30.5143C11.1589 29.7256 11.5082 28.5018 12.1261 27.9307C12.7441 27.3596 13.174 27.0332 13.5233 27.0604C13.8726 27.0876 14.4099 27.6044 15.1085 29.2633C15.1085 29.2633 14.7323 29.3177 14.4368 29.2361C14.1412 29.1545 14.3293 29.3993 14.383 29.4808C14.4368 29.5624 15.1353 30.1063 14.7861 30.7862C14.4368 31.4661 12.7624 33.5122 13.1203 33.9953C13.3621 34.3217 13.4964 34.0225 13.8726 33.6146C14.2487 33.2066 15.0816 32.2276 15.2159 32.282C15.3503 32.3364 14.9473 33.7506 13.4964 35.2735C13.4964 35.2735 13.8994 35.4639 13.4964 36.2254C13.0934 36.9868 12.5023 37.7755 12.4217 37.9387C12.3411 38.1019 12.3411 38.4826 12.5829 38.265C12.8247 38.0475 15.1083 36.1982 17.3385 36.1982C18.9506 36.1982 19.0873 36.7027 19.3805 36.8509C19.6491 36.9868 20.0522 37.4492 20.1328 37.6939C20.2134 37.9387 20.3208 38.1291 20.7239 38.265C21.1269 38.401 22.4434 38.7274 22.6315 40.4679C22.6315 40.4679 23.33 41.3381 22.4703 42.6707C22.4703 42.6707 29.2032 41.7522 32.0586 48.1362H45.4153C47.4345 48.1362 49.0711 46.4793 49.0711 44.4359V37.3004C47.9306 36.6177 45.4596 36.307 45.12 36.307C44.7167 36.307 42.9705 36.2798 42.6481 36.9596Z" fill="black"></path><path d="M9.9498 46.1246C9.97667 45.6894 9.9498 44.2209 9.68112 43.8945C9.68112 43.8945 9.51991 44.7923 9.38557 45.0911C9.29508 45.2931 8.53285 47.0275 8.04553 48.1362H10.4959C10.4256 47.9295 10.3391 47.6876 10.2722 47.5387C10.1379 47.2399 9.92293 46.5597 9.9498 46.1246Z" fill="black"></path><path d="M181.469 16.0443C172.615 16.0443 170.659 21.8917 170.659 29.1596C170.659 36.5191 172.615 42.3704 181.378 42.3704C190.322 42.3704 192.279 36.6122 192.279 29.1596C192.279 21.9876 190.511 16.0443 181.469 16.0443ZM181.378 48.9738C166.364 48.9738 162.541 39.4452 162.541 29.1596C162.541 18.9699 166.464 9.43698 181.469 9.43698C196.291 9.43698 200.388 18.9699 200.388 29.1596C200.388 39.5369 196.291 48.9738 181.378 48.9738Z" fill="black"></path></g><defs><clipPath id="clip0_94_5726"><rect width="263" height="49" fill="white"></rect></clipPath></defs></svg> 