<?xml version="1.0" encoding="UTF-8" standalone="no"?>
<!DOCTYPE svg PUBLIC "-//W3C//DTD SVG 1.1//EN" "http://www.w3.org/Graphics/SVG/1.1/DTD/svg11.dtd">
<svg width="195" height="34.4" viewBox="0 0 418 74" version="1.1" xmlns="http://www.w3.org/2000/svg" xmlns:xlink="http://www.w3.org/1999/xlink" xml:space="preserve" xmlns:serif="http://www.serif.com/" style="fill-rule:evenodd;clip-rule:evenodd;stroke-linejoin:round;stroke-miterlimit:2;">
    <g>
        <path d="M117.506,31.584C117.03,32.501 116.421,33.24 115.665,33.79C114.909,34.341 114.083,34.738 113.187,34.984C112.285,35.228 111.41,35.35 110.549,35.35L99.343,35.35L99.343,20.897L110.675,20.897C111.696,20.897 112.656,21 113.551,21.201C114.447,21.408 115.246,21.786 115.938,22.336C116.631,22.888 117.184,23.634 117.597,24.571C118.003,25.511 118.206,26.695 118.206,28.122C118.206,29.513 117.975,30.665 117.506,31.584ZM123.106,19.368C122.041,18.015 120.537,16.897 118.578,15.998C116.617,15.102 114.083,14.651 110.983,14.651L91.686,14.651L91.686,58.378L99.343,58.378L99.343,41.599L110.983,41.599C114.083,41.599 116.617,41.16 118.578,40.278C120.537,39.401 122.041,38.293 123.106,36.944C124.17,35.598 124.897,34.136 125.282,32.565C125.667,30.99 125.863,29.534 125.863,28.183C125.863,26.837 125.667,25.368 125.282,23.776C124.897,22.185 124.17,20.711 123.106,19.368Z" style="fill:rgb(0,134,114);fill-rule:nonzero;"/>
        <rect x="130.134" y="14.646" width="6.982" height="43.729" style="fill:rgb(0,134,114);fill-rule:nonzero;"/>
        <path d="M162.633,47.721C162.633,48.822 162.366,49.751 161.835,50.507C161.303,51.266 160.638,51.885 159.848,52.373C159.048,52.864 158.195,53.209 157.299,53.415C156.404,53.62 155.564,53.722 154.786,53.722C154.177,53.722 153.492,53.66 152.736,53.536C151.987,53.415 151.288,53.201 150.658,52.898C150.02,52.592 149.48,52.172 149.033,51.641C148.585,51.111 148.361,50.454 148.361,49.68C148.361,48.782 148.508,48.017 148.816,47.385C149.124,46.75 149.543,46.24 150.077,45.851C150.607,45.466 151.216,45.159 151.911,44.936C152.609,44.709 153.323,44.535 154.059,44.415C155.605,44.127 157.159,43.912 158.706,43.77C160.259,43.629 161.569,43.211 162.633,42.516L162.633,47.721ZM171.27,53.722C170.612,53.722 170.171,53.536 169.947,53.173C169.723,52.803 169.611,52.192 169.611,51.336L169.611,35.045C169.611,33.371 169.246,31.95 168.512,30.788C167.777,29.621 166.805,28.674 165.599,27.938C164.396,27.203 163.038,26.674 161.526,26.348C160.016,26.023 158.49,25.855 156.935,25.855C155.178,25.855 153.464,26.023 151.792,26.348C150.111,26.674 148.613,27.244 147.29,28.059C145.96,28.876 144.87,29.963 144.008,31.308C143.154,32.654 142.663,34.35 142.544,36.391L149.523,36.391C149.684,34.674 150.398,33.411 151.664,32.593C152.932,31.776 154.548,31.369 156.508,31.369C157.201,31.369 157.936,31.422 158.706,31.52C159.482,31.623 160.19,31.829 160.82,32.133C161.456,32.442 161.99,32.88 162.417,33.449C162.842,34.023 163.06,34.759 163.06,35.655C163.06,36.679 162.801,37.444 162.296,37.951C161.786,38.464 161.085,38.842 160.211,39.086C159.329,39.33 158.322,39.504 157.18,39.602C156.031,39.706 154.828,39.88 153.569,40.127C152.098,40.29 150.635,40.525 149.186,40.83C147.737,41.136 146.43,41.639 145.267,42.334C144.107,43.025 143.161,43.985 142.453,45.212C141.734,46.434 141.383,48.027 141.383,49.986C141.383,51.541 141.671,52.898 142.264,54.06C142.859,55.222 143.658,56.183 144.651,56.937C145.652,57.695 146.807,58.266 148.116,58.655C149.418,59.042 150.79,59.236 152.217,59.236C154.094,59.236 156.046,58.929 158.069,58.315C160.092,57.704 161.793,56.722 163.18,55.377C163.466,56.804 164.081,57.809 165.02,58.379C165.957,58.947 167.139,59.236 168.568,59.236C168.854,59.236 169.198,59.217 169.611,59.173C170.017,59.131 170.423,59.071 170.836,58.988C171.242,58.908 171.641,58.818 172.033,58.711C172.418,58.613 172.734,58.521 172.977,58.437L172.977,53.6C172.615,53.684 172.286,53.722 171.997,53.722L171.27,53.722Z" style="fill:rgb(0,134,114);fill-rule:nonzero;"/>
        <rect x="177.715" y="14.648" width="6.979" height="6.614" style="fill:rgb(0,134,114);fill-rule:nonzero;"/>
        <rect x="177.715" y="26.715" width="6.979" height="31.665" style="fill:rgb(0,134,114);fill-rule:nonzero;"/>
        <path d="M213.245,46.59C212.902,47.915 212.37,49.11 211.656,50.172C210.943,51.234 210.025,52.089 208.899,52.743C207.779,53.396 206.435,53.724 204.888,53.724C203.377,53.724 202.067,53.416 200.969,52.805C199.863,52.191 198.953,51.379 198.245,50.352C197.532,49.337 197,48.168 196.65,46.864C196.3,45.557 196.132,44.231 196.132,42.885C196.132,41.452 196.279,40.056 196.586,38.687C196.895,37.32 197.405,36.095 198.12,35.013C198.834,33.931 199.75,33.054 200.877,32.378C201.997,31.708 203.377,31.375 205.007,31.375C207.708,31.375 209.837,32.35 211.411,34.307C212.979,36.27 213.77,39.006 213.77,42.515C213.77,43.902 213.595,45.262 213.245,46.59ZM213.526,30.821L213.399,30.821C212.868,29.962 212.202,29.218 211.411,28.583C210.614,27.95 209.746,27.429 208.808,27.02C207.869,26.616 206.89,26.314 205.868,26.135C204.846,25.95 203.845,25.858 202.865,25.858C201.151,25.858 199.464,26.173 197.819,26.809C196.16,27.439 194.691,28.431 193.402,29.777C192.114,31.123 191.085,32.839 190.308,34.924C189.539,37.004 189.147,39.477 189.147,42.333C189.147,44.7 189.454,46.913 190.063,48.975C190.679,51.038 191.597,52.825 192.822,54.334C194.045,55.846 195.585,57.044 197.448,57.916C199.302,58.796 201.48,59.234 203.964,59.234C205.966,59.234 207.869,58.84 209.661,58.038C211.46,57.245 212.826,55.928 213.77,54.091L213.889,54.091L213.889,58.379L220.503,58.379L220.503,14.649L213.526,14.649L213.526,30.821Z" style="fill:rgb(0,134,114);fill-rule:nonzero;"/>
        <path d="M268.785,46.19C268.26,47.579 267.524,48.792 266.579,49.834C265.641,50.875 264.514,51.694 263.213,52.28C261.903,52.878 260.392,53.171 258.683,53.171C256.353,53.171 254.337,52.703 252.65,51.762C250.957,50.822 249.578,49.568 248.514,47.995C247.451,46.426 246.666,44.639 246.155,42.637C245.645,40.639 245.393,38.598 245.393,36.513C245.393,34.428 245.645,32.392 246.155,30.391C246.666,28.389 247.451,26.6 248.514,25.032C249.578,23.459 250.957,22.202 252.65,21.262C254.337,20.326 256.353,19.855 258.683,19.855C260.273,19.855 261.673,20.072 262.876,20.502C264.081,20.926 265.13,21.53 266.034,22.304C266.929,23.082 267.665,24 268.238,25.057C268.805,26.124 269.259,27.287 269.582,28.553L277.239,28.553C276.994,26.181 276.357,24.083 275.342,22.245C274.313,20.406 272.984,18.846 271.325,17.559C269.673,16.273 267.762,15.295 265.6,14.618C263.437,13.943 261.126,13.609 258.683,13.609C255.415,13.609 252.49,14.221 249.893,15.442C247.296,16.669 245.106,18.325 243.306,20.406C241.514,22.488 240.136,24.915 239.177,27.694C238.211,30.472 237.736,33.414 237.736,36.513C237.736,39.658 238.211,42.622 239.177,45.393C240.136,48.169 241.514,50.598 243.306,52.68C245.106,54.764 247.296,56.406 249.893,57.612C252.49,58.816 255.415,59.416 258.683,59.416C261.336,59.416 263.766,58.989 265.97,58.133C268.175,57.276 270.093,56.063 271.723,54.487C273.362,52.918 274.656,51.048 275.616,48.886C276.575,46.721 277.134,44.33 277.295,41.72L269.827,41.72C269.666,43.311 269.316,44.803 268.785,46.19Z" style="fill:rgb(0,134,114);fill-rule:nonzero;"/>
        <path d="M296.242,50.352L296.115,50.352L287.849,26.714L280.192,26.714L292.202,58.252L291.405,60.707C291.195,61.398 290.971,62.01 290.733,62.54C290.481,63.071 290.186,63.529 289.844,63.918C289.494,64.308 289.06,64.599 288.521,64.809C287.996,65.01 287.324,65.115 286.505,65.115C285.932,65.115 285.385,65.063 284.846,64.964C284.315,64.859 283.768,64.767 283.195,64.688L283.195,70.567C284.783,70.81 286.4,70.932 288.038,70.932C289.871,70.932 291.384,70.635 292.567,70.046C293.75,69.451 294.737,68.657 295.534,67.655C296.332,66.653 297.005,65.502 297.557,64.195C298.111,62.891 298.67,61.52 299.237,60.09L311.556,26.714L304.269,26.714L296.242,50.352Z" style="fill:rgb(0,134,114);fill-rule:nonzero;"/>
        <path d="M351.2,25.856C348.869,25.856 346.929,26.329 345.383,27.266C343.829,28.204 342.457,29.49 341.274,31.121C340.582,29.329 339.406,28.004 337.753,27.144C336.102,26.286 334.318,25.856 332.399,25.856C331.132,25.856 330.005,25.99 329.026,26.257C328.046,26.521 327.178,26.879 326.429,27.327C325.672,27.776 324.986,28.327 324.371,28.98C323.761,29.635 323.188,30.352 322.657,31.121L322.474,31.121L322.474,26.714L315.86,26.714L315.86,58.379L322.839,58.379L322.839,39.574C322.839,38.269 323.034,37.102 323.426,36.086C323.811,35.063 324.322,34.207 324.952,33.515C325.589,32.822 326.324,32.287 327.164,31.92C327.997,31.555 328.865,31.369 329.761,31.369C331.888,31.369 333.345,31.931 334.142,33.055C334.94,34.176 335.331,35.842 335.331,38.048L335.331,58.379L342.318,58.379L342.318,39.821C342.318,37.126 342.849,35.044 343.912,33.572C344.97,32.105 346.685,31.369 349.05,31.369C350.402,31.369 351.458,31.574 352.243,31.982C353.012,32.393 353.593,32.968 353.985,33.727C354.37,34.484 354.602,35.381 354.693,36.418C354.769,37.463 354.81,38.615 354.81,39.881L354.81,58.379L361.789,58.379L361.789,36.514C361.789,32.676 360.865,29.942 359.01,28.302C357.149,26.672 354.545,25.856 351.2,25.856Z" style="fill:rgb(0,134,114);fill-rule:nonzero;"/>
        <path d="M382.453,25.856C381.39,25.856 380.346,26.061 379.331,26.47C378.31,26.879 377.379,27.421 376.546,28.093C375.706,28.766 374.992,29.513 374.397,30.327C373.802,31.147 373.41,31.982 373.2,32.838L373.081,32.838L373.081,26.714L366.53,26.714L366.53,58.379L373.509,58.379L373.509,43.309C373.509,41.556 373.733,40.004 374.187,38.656C374.635,37.309 375.244,36.174 376.021,35.259C376.798,34.342 377.708,33.647 378.744,33.174C379.787,32.706 380.899,32.473 382.082,32.473C382.572,32.473 383.077,32.502 383.587,32.56C384.092,32.625 384.595,32.695 385.085,32.779L385.085,26.042C384.756,26 384.441,25.959 384.14,25.92C383.832,25.876 383.272,25.856 382.453,25.856Z" style="fill:rgb(0,134,114);fill-rule:nonzero;"/>
        <path d="M410.295,26.712L410.295,45.088C410.295,46.311 410.162,47.454 409.896,48.519C409.629,49.579 409.195,50.488 408.58,51.241C407.971,51.997 407.173,52.601 406.193,53.048C405.213,53.5 403.988,53.723 402.518,53.723C400.6,53.723 399.109,53.15 398.045,52.007C396.982,50.867 396.451,48.907 396.451,46.127L396.451,26.712L389.472,26.712L389.472,46.8C389.472,50.968 390.403,54.081 392.257,56.142C394.12,58.204 397.129,59.233 401.294,59.233C403.05,59.233 404.772,58.753 406.467,57.793C408.16,56.836 409.441,55.561 410.295,53.97L410.42,53.97L410.42,58.378L417.28,58.378L417.28,26.712L410.295,26.712Z" style="fill:rgb(0,134,114);fill-rule:nonzero;"/>
        <path d="M73.701,37.15C73.701,33.161 68.473,29.198 62.45,26.546C64.833,20.412 65.729,13.914 62.908,11.093C60.088,8.272 53.589,9.168 47.452,11.549C44.804,5.528 40.84,0.3 36.849,0.3C32.862,0.3 28.898,5.528 26.247,11.549C20.113,9.168 13.614,8.272 10.793,11.093C7.972,13.914 8.867,20.412 11.25,26.546C5.229,29.198 0,33.161 0,37.15C0,41.14 5.229,45.102 11.25,47.754C8.867,53.887 7.972,60.386 10.793,63.207C13.614,66.028 20.113,65.133 26.247,62.751C28.898,68.773 32.862,74 36.849,74C40.84,74 44.804,68.773 47.452,62.751C53.589,65.133 60.088,66.028 62.908,63.207C65.729,60.386 64.833,53.887 62.45,47.754C68.473,45.102 73.701,41.14 73.701,37.15Z" style="fill:rgb(249,224,45);fill-rule:nonzero;"/>
        <path d="M36.849,0.3C36.784,0.3 36.715,0.303 36.646,0.305L36.619,0.305C36.608,0.305 36.601,0.306 36.598,0.306L36.591,0.306C36.584,0.308 36.577,0.308 36.57,0.309L36.549,0.309C36.546,0.309 36.542,0.312 36.542,0.312L36.536,0.312C36.529,0.312 36.518,0.312 36.511,0.313C36.501,0.313 36.491,0.314 36.477,0.316L36.47,0.316C36.467,0.316 36.467,0.317 36.464,0.317C36.453,0.318 36.443,0.318 36.429,0.319L36.429,0.321C36.418,0.321 36.412,0.322 36.408,0.322C36.391,0.323 36.381,0.325 36.367,0.326C32.542,0.724 28.791,5.773 26.247,11.548C30.346,13.142 34.284,15.401 36.849,17.659C39.415,15.401 43.354,13.142 47.453,11.548C44.846,5.629 40.972,0.476 37.049,0.305L37.032,0.305C37.008,0.303 36.983,0.303 36.955,0.303C36.921,0.3 36.887,0.3 36.849,0.3Z" style="fill:rgb(249,217,7);fill-rule:nonzero;"/>
        <path d="M36.849,56.642C34.284,58.9 30.346,61.157 26.247,62.75C28.655,68.219 32.144,73.033 35.754,73.871L35.754,73.872C35.754,73.872 35.758,73.872 35.758,73.873C35.761,73.873 35.764,73.874 35.764,73.874C35.767,73.875 35.774,73.876 35.778,73.877C35.781,73.878 35.785,73.879 35.788,73.879C35.792,73.879 35.792,73.88 35.795,73.88C35.795,73.881 35.798,73.881 35.798,73.882C35.805,73.882 35.812,73.884 35.819,73.885C36.084,73.944 36.35,73.981 36.619,73.994C36.626,73.995 36.635,73.995 36.646,73.996C36.653,73.996 36.663,73.997 36.67,73.997C36.684,73.998 36.697,73.998 36.715,73.998C36.759,73.999 36.804,74 36.849,74C36.883,74 36.921,73.999 36.955,73.999C36.966,73.998 36.976,73.998 36.983,73.998C37.004,73.998 37.028,73.997 37.049,73.996C37.069,73.995 37.087,73.994 37.104,73.993C37.111,73.993 37.121,73.992 37.131,73.992C37.259,73.983 37.386,73.97 37.517,73.952C37.52,73.952 37.524,73.951 37.528,73.951C37.528,73.95 37.531,73.95 37.531,73.95C37.538,73.949 37.544,73.948 37.551,73.947C37.558,73.946 37.565,73.944 37.572,73.944L37.576,73.944C37.576,73.943 37.579,73.943 37.583,73.943L37.586,73.941L37.59,73.941C41.323,73.352 44.966,68.401 47.453,62.75C43.354,61.157 39.415,58.9 36.849,56.642Z" style="fill:rgb(249,217,7);fill-rule:nonzero;"/>
        <path d="M62.45,26.546C60.859,30.646 58.6,34.584 56.341,37.15C58.6,39.716 60.859,43.653 62.45,47.754C68.425,45.122 73.618,41.201 73.701,37.244L73.701,37.15C73.701,37.1 73.701,37.053 73.697,37.003L73.697,36.992C73.68,36.482 73.577,35.973 73.401,35.466C72.21,32.068 67.622,28.825 62.45,26.546Z" style="fill:rgb(249,217,7);fill-rule:nonzero;"/>
        <path d="M11.25,26.546C5.849,28.926 1.085,32.359 0.162,35.921C0.16,35.922 0.16,35.923 0.16,35.925L0.16,35.926C0.055,36.333 0,36.741 0,37.15C0,37.184 0,37.219 0.001,37.253L0.001,37.26C0.002,37.284 0.002,37.307 0.003,37.332C0.004,37.338 0.004,37.343 0.004,37.349L0.004,37.35C0.175,41.271 5.329,45.146 11.249,47.754C12.843,43.653 15.101,39.716 17.359,37.15C15.101,34.584 12.843,30.646 11.249,26.546" style="fill:rgb(249,217,7);fill-rule:nonzero;"/>
        <path d="M10.793,11.094C10.745,11.141 10.699,11.19 10.653,11.24C10.646,11.249 10.639,11.254 10.633,11.263C10.628,11.269 10.623,11.274 10.618,11.279C10.618,11.279 10.618,11.28 10.617,11.28C10.615,11.28 10.615,11.281 10.615,11.281C10.611,11.287 10.607,11.293 10.602,11.297C10.6,11.299 10.6,11.299 10.598,11.299C10.595,11.305 10.591,11.31 10.588,11.314C10.585,11.316 10.583,11.317 10.581,11.321C10.581,11.321 10.578,11.323 10.577,11.324C10.573,11.33 10.568,11.336 10.563,11.341C10.554,11.351 10.548,11.36 10.541,11.368L10.54,11.368C10.537,11.37 10.537,11.372 10.535,11.374C10.535,11.375 10.534,11.375 10.533,11.378C10.525,11.386 10.517,11.395 10.51,11.403L10.51,11.404C10.509,11.405 10.508,11.406 10.508,11.406C10.503,11.412 10.498,11.418 10.494,11.422C10.486,11.434 10.478,11.442 10.469,11.454C8.048,14.439 8.964,20.661 11.25,26.545C15.276,24.772 19.657,23.586 23.068,23.369C23.286,19.957 24.473,15.576 26.246,11.55C20.214,9.207 13.83,8.302 10.938,10.955L10.937,10.957C10.933,10.96 10.929,10.964 10.925,10.968C10.906,10.984 10.888,11.002 10.87,11.018C10.869,11.02 10.868,11.021 10.868,11.021C10.842,11.044 10.818,11.069 10.793,11.094Z" style="fill:rgb(249,224,45);fill-rule:nonzero;"/>
        <path d="M50.634,50.933C50.414,54.344 49.229,58.724 47.456,62.75C53.024,64.914 58.896,65.851 62.04,63.891C62.044,63.89 62.044,63.89 62.047,63.888C62.047,63.888 62.047,63.886 62.05,63.885C62.054,63.883 62.057,63.881 62.061,63.878C62.064,63.877 62.068,63.875 62.071,63.873C62.071,63.871 62.075,63.87 62.075,63.869C62.077,63.869 62.077,63.867 62.081,63.866C62.088,63.863 62.091,63.859 62.099,63.855C62.326,63.709 62.54,63.546 62.739,63.368C62.746,63.362 62.753,63.355 62.76,63.347C62.767,63.343 62.77,63.337 62.777,63.332C62.788,63.323 62.797,63.312 62.808,63.303C62.842,63.272 62.877,63.24 62.908,63.206C62.932,63.182 62.956,63.158 62.98,63.132L62.98,63.13C62.987,63.125 62.994,63.118 63.001,63.111C63.014,63.095 63.028,63.08 63.046,63.064L63.046,63.062C63.06,63.049 63.069,63.036 63.08,63.023C63.087,63.016 63.094,63.01 63.1,63.003C63.183,62.906 63.266,62.806 63.345,62.702C63.345,62.7 63.348,62.696 63.352,62.693L63.352,62.69C63.355,62.685 63.363,62.68 63.366,62.674C63.37,62.668 63.373,62.661 63.379,62.656L63.379,62.655C63.379,62.653 63.382,62.651 63.382,62.65C63.382,62.648 63.386,62.648 63.386,62.645L63.386,62.644C65.611,59.586 64.684,53.509 62.45,47.755C58.424,49.529 54.044,50.715 50.634,50.933Z" style="fill:rgb(249,224,45);fill-rule:nonzero;"/>
        <path d="M47.456,11.55C49.229,15.576 50.414,19.956 50.634,23.368C54.044,23.586 58.425,24.773 62.45,26.545C64.816,20.462 65.715,14.016 62.973,11.161C62.953,11.138 62.929,11.116 62.908,11.094C62.874,11.059 62.836,11.024 62.802,10.992C62.798,10.989 62.798,10.986 62.795,10.984C62.422,10.635 61.988,10.347 61.506,10.115C58.259,8.554 52.722,9.504 47.456,11.55Z" style="fill:rgb(249,224,45);fill-rule:nonzero;"/>
        <path d="M11.25,47.755C9.113,53.257 8.171,59.052 10.038,62.224C10.038,62.225 10.04,62.227 10.041,62.228C10.255,62.59 10.504,62.918 10.793,63.206C10.818,63.231 10.843,63.256 10.867,63.28C10.869,63.281 10.871,63.283 10.872,63.284C10.89,63.3 10.908,63.317 10.924,63.332C10.929,63.337 10.933,63.341 10.937,63.345L10.938,63.345C13.83,65.997 20.214,65.093 26.245,62.751C24.473,58.725 23.286,54.344 23.068,50.933C19.656,50.715 15.276,49.527 11.25,47.755Z" style="fill:rgb(249,224,45);fill-rule:nonzero;"/>
        <path d="M47.452,11.55C43.354,13.143 39.414,15.401 36.848,17.659C37.131,17.907 37.396,18.155 37.644,18.402C40.079,20.836 41.03,23.804 41.03,26.725C41.03,26.841 41.026,26.956 41.026,27.071C43.113,24.874 45.967,23.333 49.546,23.333C49.893,23.333 50.259,23.344 50.631,23.367C50.414,19.956 49.229,15.576 47.456,11.55L47.452,11.55Z" style="fill:rgb(248,206,20);fill-rule:nonzero;"/>
        <path d="M50.634,23.368C50.658,23.742 50.668,24.105 50.668,24.454C50.668,28.033 49.125,30.886 46.929,32.976C47.046,32.973 47.159,32.971 47.276,32.971C50.197,32.971 53.165,33.922 55.596,36.356C55.844,36.603 56.092,36.868 56.34,37.15C58.6,34.584 60.859,30.647 62.45,26.546L62.45,26.545C58.424,24.772 54.044,23.585 50.634,23.368Z" style="fill:rgb(248,206,20);fill-rule:nonzero;"/>
        <path d="M32.675,47.228C30.587,49.428 27.732,50.969 24.155,50.969C23.805,50.969 23.443,50.957 23.068,50.933C23.285,54.344 24.472,58.725 26.246,62.751L26.247,62.751C30.347,61.158 34.285,58.9 36.849,56.642C36.57,56.394 36.305,56.145 36.057,55.9C33.623,53.465 32.671,50.496 32.671,47.575C32.671,47.459 32.673,47.345 32.675,47.228Z" style="fill:rgb(248,206,20);fill-rule:nonzero;"/>
        <path d="M17.359,37.15C15.1,39.716 12.842,43.654 11.249,47.754L11.25,47.754C15.276,49.527 19.656,50.715 23.068,50.933C23.044,50.557 23.032,50.195 23.032,49.845C23.032,46.267 24.573,43.414 26.771,41.325C26.656,41.329 26.54,41.329 26.424,41.329C23.504,41.329 20.535,40.378 18.102,37.944C17.854,37.697 17.607,37.432 17.359,37.15Z" style="fill:rgb(248,206,20);fill-rule:nonzero;"/>
        <path d="M41.026,47.228C41.026,47.345 41.03,47.459 41.03,47.575C41.03,50.496 40.079,53.465 37.645,55.9C37.396,56.145 37.131,56.394 36.849,56.642C39.414,58.9 43.354,61.158 47.452,62.751L47.455,62.751C49.229,58.725 50.414,54.344 50.631,50.932C50.259,50.957 49.894,50.969 49.546,50.969C45.968,50.969 43.113,49.428 41.026,47.228Z" style="fill:rgb(248,206,20);fill-rule:nonzero;"/>
        <path d="M56.341,37.15C56.093,37.432 55.846,37.697 55.597,37.944C53.166,40.378 50.198,41.329 47.277,41.329C47.16,41.329 47.046,41.329 46.929,41.325C49.126,43.414 50.669,46.267 50.669,49.845C50.669,50.195 50.659,50.557 50.635,50.932C54.044,50.715 58.424,49.527 62.45,47.754C60.859,43.654 58.6,39.716 56.341,37.15Z" style="fill:rgb(248,206,20);fill-rule:nonzero;"/>
        <path d="M26.246,11.55L26.245,11.55C24.473,15.576 23.284,19.956 23.068,23.367C23.442,23.344 23.805,23.333 24.154,23.333C27.733,23.333 30.586,24.874 32.675,27.071C32.672,26.956 32.67,26.841 32.67,26.725C32.67,23.804 33.622,20.836 36.056,18.402C36.301,18.155 36.569,17.907 36.848,17.659C34.284,15.401 30.346,13.143 26.246,11.55Z" style="fill:rgb(248,206,20);fill-rule:nonzero;"/>
        <path d="M23.068,23.368C19.656,23.585 15.275,24.772 11.25,26.545L11.25,26.546C12.842,30.647 15.1,34.584 17.359,37.15C17.607,36.868 17.856,36.603 18.102,36.356C20.535,33.922 23.505,32.971 26.426,32.971C26.541,32.971 26.656,32.973 26.771,32.976C24.573,30.886 23.032,28.033 23.032,24.454C23.032,24.105 23.043,23.742 23.068,23.368Z" style="fill:rgb(248,206,20);fill-rule:nonzero;"/>
        <path d="M49.546,23.332C45.968,23.332 43.113,24.874 41.026,27.071C41.019,27.318 41.005,27.563 40.988,27.808C40.695,31.523 38.949,35.04 36.87,37.132C38.863,35.149 42.149,33.47 45.672,33.065C46.088,33.016 46.509,32.986 46.929,32.975C49.126,30.886 50.669,28.033 50.669,24.454C50.669,24.105 50.658,23.743 50.634,23.368C50.259,23.343 49.894,23.332 49.546,23.332Z" style="fill:rgb(242,162,34);fill-rule:nonzero;"/>
        <path d="M36.849,37.15C34.624,39.377 30.765,41.222 26.771,41.325C24.573,43.414 23.032,46.267 23.032,49.845C23.032,50.195 23.044,50.557 23.068,50.933C23.443,50.957 23.805,50.969 24.155,50.969C27.733,50.969 30.587,49.427 32.676,47.227C32.778,43.236 34.624,39.377 36.849,37.15Z" style="fill:rgb(242,162,34);fill-rule:nonzero;"/>
        <path d="M36.849,37.15C38.939,39.238 40.695,42.767 40.988,46.494C41.005,46.737 41.019,46.982 41.026,47.227C43.113,49.427 45.968,50.969 49.546,50.969C49.894,50.969 50.259,50.957 50.634,50.932C50.658,50.557 50.669,50.195 50.669,49.845C50.669,46.267 49.126,43.414 46.929,41.325C42.934,41.222 39.078,39.377 36.849,37.15Z" style="fill:rgb(242,162,34);fill-rule:nonzero;"/>
        <path d="M24.155,23.332C23.806,23.332 23.442,23.345 23.069,23.367C23.044,23.743 23.032,24.105 23.032,24.454C23.032,28.033 24.573,30.886 26.771,32.975C30.765,33.077 34.624,34.924 36.849,37.15C34.624,34.924 32.777,31.065 32.675,27.071C30.587,24.874 27.732,23.332 24.155,23.332Z" style="fill:rgb(242,162,34);fill-rule:nonzero;"/>
        <path d="M47.276,32.971C47.159,32.971 47.046,32.973 46.928,32.976C46.687,33.207 46.432,33.429 46.178,33.642C43.36,35.957 39.734,37.151 36.848,37.151C39.696,37.151 43.268,38.315 46.067,40.572C46.363,40.811 46.653,41.062 46.928,41.325C47.046,41.329 47.159,41.33 47.276,41.33C50.196,41.33 53.165,40.379 55.596,37.945C55.844,37.698 56.092,37.432 56.34,37.151C56.092,36.869 55.844,36.603 55.596,36.356C53.165,33.923 50.196,32.971 47.276,32.971Z" style="fill:rgb(243,180,26);fill-rule:nonzero;"/>
        <path d="M36.849,37.15C36.849,40.299 35.427,44.332 32.676,47.227C32.672,47.344 32.671,47.459 32.671,47.574C32.671,50.496 33.623,53.465 36.057,55.899C36.305,56.145 36.57,56.394 36.849,56.642C37.131,56.394 37.396,56.145 37.645,55.899C40.079,53.465 41.03,50.496 41.03,47.574C41.03,47.459 41.026,47.344 41.026,47.227C38.275,44.332 36.849,40.299 36.849,37.15Z" style="fill:rgb(243,180,26);fill-rule:nonzero;"/>
        <path d="M36.849,17.659C36.57,17.906 36.305,18.155 36.057,18.402C33.623,20.835 32.671,23.804 32.671,26.726C32.671,26.841 32.672,26.956 32.676,27.071C35.417,29.959 36.842,33.976 36.849,37.119C36.859,34.238 38.055,30.621 40.369,27.815C40.579,27.561 40.795,27.313 41.026,27.071C41.026,26.956 41.03,26.841 41.03,26.726C41.03,23.804 40.079,20.835 37.645,18.402C37.396,18.155 37.131,17.906 36.849,17.659Z" style="fill:rgb(243,180,26);fill-rule:nonzero;"/>
        <path d="M26.425,32.971C23.505,32.972 20.534,33.923 18.102,36.356C17.855,36.603 17.606,36.869 17.358,37.151C17.606,37.432 17.855,37.697 18.102,37.945C20.534,40.378 23.504,41.33 26.425,41.33C26.54,41.33 26.656,41.329 26.771,41.325C29.666,38.574 33.702,37.151 36.848,37.151C33.702,37.151 29.666,35.727 26.771,32.976C26.656,32.973 26.54,32.971 26.425,32.971Z" style="fill:rgb(243,180,26);fill-rule:nonzero;"/>
        <path d="M46.929,32.976C46.509,32.986 46.089,33.017 45.672,33.065C42.138,33.471 38.843,35.159 36.849,37.151C39.735,37.151 43.362,35.956 46.175,33.642C46.436,33.428 46.688,33.207 46.929,32.976Z" style="fill:rgb(239,136,33);fill-rule:nonzero;"/>
        <path d="M36.849,37.15C39.078,39.377 42.934,41.222 46.929,41.325C46.653,41.062 46.364,40.81 46.068,40.571C43.268,38.314 39.697,37.15 36.849,37.15Z" style="fill:rgb(239,136,33);fill-rule:nonzero;"/>
        <path d="M36.849,37.15C36.849,40.299 38.275,44.332 41.026,47.227C41.019,46.982 41.005,46.737 40.988,46.494C40.695,42.767 38.939,39.238 36.849,37.15Z" style="fill:rgb(239,136,33);fill-rule:nonzero;"/>
        <path d="M36.849,37.15C34.624,39.377 32.778,43.236 32.676,47.227C35.427,44.332 36.849,40.299 36.849,37.15Z" style="fill:rgb(239,136,33);fill-rule:nonzero;"/>
        <path d="M36.87,37.132C36.863,37.139 36.856,37.145 36.849,37.15C36.856,37.145 36.863,37.139 36.87,37.132ZM41.026,27.072C40.796,27.313 40.579,27.561 40.369,27.815C38.048,30.631 36.849,34.264 36.849,37.15C38.94,35.062 40.696,31.535 40.989,27.808C41.005,27.563 41.02,27.317 41.026,27.072Z" style="fill:rgb(239,136,33);fill-rule:nonzero;"/>
        <path d="M36.849,37.12L36.849,37.15L36.849,37.12ZM32.676,27.072C32.778,31.065 34.623,34.924 36.849,37.15C36.849,34.002 35.427,29.968 32.676,27.072Z" style="fill:rgb(239,136,33);fill-rule:nonzero;"/>
        <path d="M26.771,32.976C29.666,35.728 33.702,37.151 36.848,37.151C34.623,34.925 30.765,33.078 26.771,32.976Z" style="fill:rgb(239,136,33);fill-rule:nonzero;"/>
        <path d="M36.849,37.15C33.702,37.15 29.667,38.573 26.771,41.325C30.765,41.222 34.624,39.377 36.849,37.15Z" style="fill:rgb(239,136,33);fill-rule:nonzero;"/>
    </g>
</svg>
